<?xml version="1.0" standalone="no"?><!DOCTYPE svg PUBLIC "-//W3C//DTD SVG 1.1//EN" "http://www.w3.org/Graphics/SVG/1.1/DTD/svg11.dtd"><svg t="1573888306937" class="icon" viewBox="0 0 1820 1024" version="1.1" xmlns="http://www.w3.org/2000/svg" p-id="1292" width="63.984375" height="36" xmlns:xlink="http://www.w3.org/1999/xlink"><defs><style type="text/css"></style></defs><path d="M521.481481 860.254815h245.191112L803.081481 709.783704l-201.481481 24.272592zM1045.807407 624.82963l104.296297-12.136297-31.478519-53.475555h-92.254815zM1179.306667 666.074074L924.444444 695.182222l4.835556 165.072593h368.924444z" fill="#5FFFBA" p-id="1293"></path><path d="M1023.905185 229.167407C977.825185 182.992593 921.979259 161.185185 858.832593 161.185185s-118.897778 21.807407-165.072593 67.982222c-46.08 46.08-67.982222 99.555556-67.982222 162.607408 0 58.216296 26.737778 114.062222 77.653333 172.373333l2.465185 2.465185 70.352593 84.954074c12.136296 19.437037 24.272593 36.408889 33.943704 55.845926 19.437037 38.874074 36.408889 89.78963 51.01037 155.306667 14.601481-65.517037 31.573333-116.527407 51.01037-155.306667 19.437037-38.874074 48.545185-80.118519 87.41926-123.828148l14.601481-19.437037c51.01037-58.216296 77.653333-114.062222 77.653333-172.373333 0-63.146667-21.807407-118.897778-67.982222-162.607408zM856.462222 510.672593c-67.982222 0-123.828148-55.845926-123.828148-123.828149s55.845926-123.828148 123.828148-123.828148 123.828148 55.845926 123.828148 123.828148S924.444444 510.672593 856.462222 510.672593z" fill="#FFA28D" p-id="1294"></path><path d="M642.844444 666.074074l133.49926-14.601481-70.352593-84.954074z" fill="#5FFFBA" p-id="1295"></path></svg>